<svg width="28" height="20" viewBox="0 0 28 20" fill="none" xmlns="http://www.w3.org/2000/svg">
<path fill-rule="evenodd" clip-rule="evenodd" d="M11.5312 6.03258C11.4612 6.03219 11.3925 6.01304 11.3318 5.977C11.2407 5.9218 11.1744 5.83156 11.1475 5.72603C11.1206 5.6205 11.1353 5.50826 11.1883 5.41388C11.4039 4.98564 11.5205 4.51163 11.529 4.02902C11.529 3.63112 11.4157 3.29769 11.2952 2.945C11.1747 2.5923 11.0556 2.24108 11.0556 1.83355C11.0556 0.993306 11.6753 0.226415 11.7456 0.141204C11.8151 0.060215 11.9126 0.0107094 12.0171 0.00338661C12.1216 -0.00393616 12.2247 0.0315098 12.3041 0.102067C12.3835 0.172624 12.4329 0.272625 12.4415 0.380465C12.4502 0.488305 12.4174 0.595326 12.3503 0.6784C12.2118 0.845857 11.8525 1.38009 11.8525 1.83355C11.8525 2.09934 11.9427 2.36365 12.0473 2.67009L12.0476 2.67084L12.0513 2.68187L12.0513 2.68188C12.181 3.06293 12.3266 3.49109 12.3266 4.02828C12.3184 4.65587 12.1646 5.27228 11.8783 5.82585C11.8432 5.88884 11.7926 5.94112 11.7316 5.97742C11.6707 6.01373 11.6015 6.03275 11.5312 6.03258ZM7.78984 6.38971C7.85812 6.44298 7.94118 6.47214 8.02674 6.4729C8.1049 6.47362 8.18151 6.45041 8.24693 6.40622C8.27634 6.38621 8.96776 5.91126 8.96776 5.08286C8.96776 4.69845 8.83598 4.34404 8.70832 4.00072L8.70596 3.99439C8.60196 3.71653 8.50442 3.45497 8.50442 3.2401C8.50803 3.00244 8.60268 2.77596 8.76765 2.61028C8.84337 2.53786 8.88897 2.43793 8.89486 2.3315C8.90076 2.22507 8.86649 2.12043 8.79925 2.03956C8.73202 1.95869 8.63706 1.90789 8.53433 1.89783C8.4316 1.88778 8.3291 1.91925 8.24836 1.98565C8.079 2.14466 7.94343 2.33826 7.85022 2.55418C7.757 2.77011 7.70819 3.00367 7.70685 3.2401C7.70685 3.60835 7.83595 3.95512 7.96147 4.29078L7.96521 4.30086L7.96522 4.30087C8.07071 4.58461 8.17018 4.85219 8.17018 5.08286C8.17018 5.46075 7.81156 5.71638 7.81156 5.71638C7.74 5.76484 7.68542 5.83579 7.65589 5.91875C7.62635 6.00171 7.62343 6.09228 7.64755 6.17709C7.67167 6.2619 7.72156 6.33644 7.78984 6.38971ZM20.5067 9.55445L18.7965 9.36165L18.8355 9.3395C21.9476 7.58861 24.1711 6.96102 25.5008 6.59276C26.7266 6.24822 27.342 6.07483 27.2617 5.385C27.2258 5.08565 27.0386 4.72925 26.3472 4.72925C24.9887 4.72925 22.251 6.0978 20.194 7.24851C19.3182 7.74199 18.4045 8.30364 17.4778 8.92753L17.1137 9.17193L2.95797 7.57608C2.82085 7.56029 2.68205 7.57446 2.55057 7.61768C2.4191 7.6609 2.29788 7.73219 2.19481 7.82694C2.09173 7.92169 2.00909 8.03777 1.95226 8.16764C1.89542 8.29752 1.86566 8.43829 1.8649 8.58083C1.86724 10.1758 2.23187 11.7481 2.92947 13.171C3.62707 14.5939 4.63817 15.8279 5.88145 16.7736L5.75378 17.9799C5.72561 18.2483 5.80172 18.5173 5.96539 18.7278C6.12905 18.9382 6.36689 19.073 6.62667 19.1025L14.5163 19.9916C14.7762 20.0207 15.0367 19.9421 15.2405 19.7731C15.4444 19.604 15.575 19.3583 15.6037 19.0899L15.7306 17.8828C17.1423 17.237 18.3876 16.2579 19.3663 15.0242C20.3449 13.7906 21.0296 12.3369 21.3653 10.78C21.3945 10.6405 21.395 10.4962 21.3667 10.3565C21.3384 10.2168 21.2819 10.0848 21.2009 9.9692C21.1199 9.85357 21.0162 9.75687 20.8966 9.68541C20.777 9.61395 20.6441 9.56932 20.5067 9.55445ZM8.47888 15.9403C8.55254 15.881 8.60494 15.798 8.62777 15.7044C8.64143 15.6491 8.64439 15.5916 8.63649 15.5352C8.62859 15.4787 8.60998 15.4244 8.58173 15.3754C8.55348 15.3264 8.51614 15.2836 8.47185 15.2496C8.42757 15.2155 8.37721 15.1908 8.32366 15.1769C6.27809 14.6411 4.79268 12.7739 4.79268 10.737C4.79268 10.6799 4.78178 10.6234 4.76062 10.5707C4.73945 10.518 4.70843 10.4701 4.66932 10.4297C4.63022 10.3894 4.5838 10.3574 4.53272 10.3357C4.48164 10.3139 4.42691 10.3027 4.37166 10.3028C4.26025 10.303 4.15345 10.3488 4.07467 10.4302C3.99589 10.5116 3.95154 10.6219 3.95135 10.737C3.95207 13.1659 5.70358 15.3873 8.1171 16.0186C8.15111 16.0273 8.18603 16.0318 8.22109 16.0319C8.3145 16.0319 8.40521 15.9996 8.47888 15.9403ZM1.68133 14.1691C1.61687 14.1691 1.55326 14.1539 1.49543 14.1244C1.4376 14.095 1.38709 14.0522 1.34782 13.9994C0.063238 12.2797 0.0022718 10.2057 0.000120074 10.1183C-0.00254306 10.0031 0.0391855 9.89159 0.116125 9.80822C0.193064 9.72484 0.298911 9.67646 0.410382 9.67371C0.521853 9.67096 0.629818 9.71407 0.710523 9.79355C0.791228 9.87303 0.838064 9.98238 0.840727 10.0975C0.840727 10.1235 0.904562 11.9833 2.01342 13.4689C2.06158 13.5331 2.09135 13.6099 2.09934 13.6907C2.10734 13.7715 2.09324 13.853 2.05866 13.9259C2.02407 13.9989 1.97038 14.0603 1.90368 14.1033C1.83698 14.1463 1.75995 14.1691 1.68133 14.1691ZM19.0069 17.5382C18.9135 17.5385 18.8227 17.5066 18.7487 17.4476C18.6748 17.3885 18.622 17.3057 18.5988 17.2122C18.5755 17.1187 18.583 17.0199 18.6202 16.9314C18.6573 16.8428 18.722 16.7695 18.804 16.7232C18.8284 16.7091 20.3955 15.7948 21.1608 14.0943C21.2078 13.9898 21.293 13.9089 21.3977 13.8694C21.5025 13.8299 21.6181 13.8349 21.7192 13.8835C21.8203 13.932 21.8986 14.02 21.9369 14.1282C21.9751 14.2364 21.9702 14.3558 21.9233 14.4603C21.0367 16.4312 19.2831 17.4427 19.2092 17.4842C19.1474 17.5197 19.0777 17.5383 19.0069 17.5382ZM14.4163 7.38393C14.4829 7.4313 14.5618 7.45667 14.6426 7.45667C14.7405 7.45667 14.8349 7.41949 14.908 7.3522C15.075 7.18549 15.2078 6.98574 15.2985 6.76488C15.3892 6.54401 15.4359 6.30655 15.4359 6.06663C15.4359 5.68874 15.3233 5.34345 15.2142 5.00928C15.1253 4.73512 15.0414 4.4743 15.0414 4.25202C15.0453 4.01457 15.1396 3.78828 15.3039 3.6222C15.3841 3.55116 15.4337 3.45013 15.4417 3.34132C15.4498 3.23252 15.4157 3.12486 15.3469 3.04203C15.2782 2.9592 15.1804 2.90798 15.0751 2.89964C14.9697 2.8913 14.8655 2.92653 14.7853 2.99757C14.616 3.15658 14.4804 3.35018 14.3872 3.5661C14.294 3.78203 14.2452 4.01559 14.2438 4.25202C14.2438 4.60926 14.3527 4.94445 14.4578 5.26783L14.459 5.27158C14.5515 5.55537 14.6383 5.82359 14.6383 6.06663C14.6376 6.31643 14.5441 6.55644 14.3772 6.7372C14.3169 6.79276 14.2743 6.86594 14.2552 6.94705C14.236 7.02816 14.2412 7.11338 14.27 7.19139C14.2987 7.26941 14.3498 7.33655 14.4163 7.38393Z" fill="white"/>
</svg>
