<svg width="90" height="18" viewBox="0 0 90 18" fill="none" xmlns="http://www.w3.org/2000/svg">
<g clip-path="url(#clip0)">
<path d="M26.7803 8.98663C26.9975 8.98663 27.2346 8.99753 27.4922 9.01804C27.7534 9.03937 28.0131 9.07684 28.27 9.13026C28.5161 9.17911 28.7563 9.25588 28.9862 9.35917L28.7932 10.5185L27.8708 10.4935C27.5775 10.4849 27.3141 10.4807 27.0807 10.4807C26.7186 10.4807 26.4331 10.5305 26.2242 10.6301C26.1181 10.6824 26.0234 10.7562 25.9457 10.8472C25.8679 10.9382 25.8087 11.0445 25.7717 11.1597C25.6802 11.4128 25.6345 11.7644 25.6345 12.2145C25.6345 12.671 25.6806 13.0282 25.7729 13.286C25.8092 13.4023 25.8681 13.5099 25.9459 13.602C26.0236 13.6942 26.1188 13.769 26.2254 13.822C26.4348 13.9216 26.7203 13.9714 27.082 13.9714C27.2102 13.9714 27.3757 13.9672 27.5785 13.9586C27.779 13.9509 27.9962 13.94 28.2296 13.9278C28.463 13.9156 28.692 13.8926 28.9173 13.8592L29.0862 15.0307C28.7357 15.1878 28.3664 15.2956 27.9882 15.3513C27.5854 15.4174 27.1782 15.4509 26.7704 15.4514C26.0301 15.4514 25.4411 15.3445 25.0033 15.1307C24.5719 14.9269 24.2328 14.5596 24.0561 14.1048C23.8633 13.6312 23.7666 12.9998 23.7662 12.2107C23.7658 11.4215 23.8645 10.7902 24.0623 10.3165C24.2422 9.86068 24.5859 9.49442 25.0213 9.29441C25.462 9.08922 26.0483 8.98663 26.7803 8.98663Z" fill="#84CC16"/>
<path d="M33.1374 6.58143L33.1492 8.71283C33.1501 9.02106 33.1321 9.32903 33.0952 9.6349C33.0669 9.88202 33.0255 10.1273 32.971 10.3697L33.1399 10.532V15.3045H31.3517V6.58399L33.1374 6.58143ZM35.5035 8.98663C36.6294 8.98663 37.1924 9.55581 37.1924 10.6942V15.3045H35.3924V11.2649C35.3924 10.9904 35.346 10.8013 35.2533 10.6974C35.1606 10.5935 34.9978 10.5418 34.7648 10.5422C34.4933 10.5446 34.2241 10.5951 33.9691 10.6916C33.6208 10.828 33.2831 10.9913 32.9586 11.1802L32.8016 10.2184C33.2056 9.84566 33.661 9.53707 34.1528 9.30275C34.5762 9.09956 35.0366 8.9918 35.5035 8.98663Z" fill="#84CC16"/>
<path d="M42.6414 8.98663C43.3895 8.98663 43.9895 9.09349 44.4414 9.30723C44.8807 9.50743 45.2284 9.87489 45.4121 10.3332C45.6087 10.8068 45.7072 11.4425 45.7076 12.2402C45.7076 13.0212 45.6091 13.6483 45.4121 14.1215C45.2297 14.5796 44.8814 14.946 44.4414 15.1429C43.9908 15.3503 43.3908 15.4541 42.6414 15.4546C41.9015 15.4546 41.3044 15.3507 40.8501 15.1429C40.4065 14.9467 40.0541 14.5803 39.8669 14.1208C39.6658 13.6476 39.5652 13.0205 39.5652 12.2395C39.5652 11.4418 39.6658 10.8062 39.8669 10.3325C40.0555 9.87324 40.4074 9.50609 40.8501 9.30659C41.3052 9.09328 41.9023 8.98663 42.6414 8.98663ZM42.6414 10.3332C42.3356 10.3332 42.0943 10.3873 41.9177 10.4954C41.741 10.6036 41.6168 10.7946 41.5452 11.0687C41.4732 11.3422 41.437 11.7327 41.4366 12.2402C41.4366 12.7382 41.4728 13.1244 41.5452 13.3988C41.6177 13.6733 41.7418 13.8622 41.9177 13.9657C42.0943 14.0695 42.3356 14.1215 42.6414 14.1215C42.9472 14.1215 43.1884 14.0695 43.3651 13.9657C43.5418 13.8618 43.6659 13.6728 43.7375 13.3988C43.8091 13.1248 43.8453 12.7386 43.8461 12.2402C43.8461 11.7327 43.8099 11.3422 43.7375 11.0687C43.6651 10.7951 43.541 10.604 43.3651 10.4954C43.1892 10.3868 42.948 10.3325 42.6414 10.3325V10.3332Z" fill="#84CC16"/>
<path d="M57.4311 9.14885L55.9595 14.8185C55.9322 14.9606 55.8548 15.0872 55.7422 15.1737C55.627 15.2608 55.4871 15.3059 55.3444 15.302H53.9938C53.8392 15.3047 53.689 15.2493 53.5711 15.1461C53.4516 15.0447 53.3741 14.9 53.3544 14.7415L52.7027 11.279C52.6787 11.1046 52.658 10.9323 52.6407 10.7621C52.6233 10.592 52.5991 10.4195 52.568 10.2447H52.4234C52.399 10.4191 52.3748 10.5916 52.3508 10.7621C52.3268 10.9327 52.3028 11.105 52.2788 11.279L51.6271 14.7415C51.6072 14.8999 51.5298 15.0446 51.4104 15.1461C51.2925 15.2492 51.1423 15.3046 50.9878 15.302H49.6489C49.5062 15.3059 49.3663 15.2608 49.2511 15.1737C49.1385 15.0872 49.0611 14.9606 49.0338 14.8185L47.5622 9.14885H49.3622L50.1821 13.1366C50.2144 13.3026 50.2442 13.4713 50.2665 13.6412C50.2889 13.8111 50.3106 13.9798 50.3286 14.1458H50.485C50.5094 13.9796 50.5355 13.8113 50.5632 13.6412C50.5918 13.4713 50.6178 13.3026 50.642 13.1366L51.2931 9.70927C51.3122 9.55324 51.3852 9.40956 51.4986 9.30467C51.615 9.19924 51.7659 9.14352 51.9207 9.14885H53.0782C53.2309 9.1461 53.3792 9.20158 53.4947 9.30467C53.613 9.41176 53.6883 9.56063 53.7058 9.72209L54.3451 13.1366C54.3695 13.3024 54.3976 13.4685 54.4295 13.6348C54.4614 13.8011 54.4895 13.9721 54.5139 14.1478H54.6585C54.6908 13.9734 54.7171 13.8051 54.7373 13.6431C54.7576 13.4811 54.7837 13.3129 54.8156 13.1385L55.6361 9.15077L57.4311 9.14885Z" fill="#84CC16"/>
<path d="M62.9801 9.26108V9.90871H59.1802V9.32328L60.326 9.25916L62.9801 9.26108ZM61.0019 7.44131V13.797C61.0019 14.104 61.0723 14.3282 61.2129 14.4697C61.3536 14.6112 61.5688 14.6819 61.8585 14.6819H62.8137L62.9099 15.2673C62.7732 15.3039 62.6343 15.3308 62.4941 15.3481C62.337 15.3693 62.1837 15.3834 62.0416 15.3917C61.8994 15.4001 61.7803 15.4046 61.6921 15.4046C61.2171 15.4046 60.8571 15.2763 60.6121 15.0198C60.3672 14.7634 60.2445 14.3895 60.244 13.8984V7.44131H61.0019Z" fill="#84CC16"/>
<path d="M66.1034 6.71866C66.2723 6.71866 66.3567 6.80586 66.3567 6.98028V7.71575C66.3567 7.89016 66.2723 7.97737 66.1034 7.97737H65.7416C65.5727 7.97737 65.4883 7.89016 65.4883 7.71575V6.98028C65.4883 6.80586 65.5727 6.71866 65.7416 6.71866H66.1034ZM66.2965 9.26108V15.3045H65.5516V9.26108H66.2965Z" fill="#84CC16"/>
<path d="M70.205 9.26108L70.267 10.4076L70.339 10.5942V15.3045H69.5793V9.26108H70.205ZM72.7144 9.11168C73.2048 9.11168 73.5828 9.25082 73.8484 9.52911C74.1141 9.8074 74.2467 10.2206 74.2463 10.7686V15.3045H73.5102V10.9808C73.5102 10.5572 73.4239 10.2539 73.2513 10.0709C73.0788 9.88797 72.8193 9.7965 72.473 9.7965C72.2494 9.79642 72.0273 9.83433 71.8157 9.90871C71.5736 9.9985 71.3427 10.1177 71.1279 10.2639C70.883 10.4264 70.5915 10.6363 70.2534 10.8936L70.205 10.3204C70.5847 9.96005 71.0111 9.65599 71.4718 9.4169C71.8582 9.219 72.2832 9.11462 72.7144 9.11168ZM76.6347 9.11168C77.1313 9.11168 77.5132 9.25274 77.7805 9.53488C78.0478 9.81701 78.1807 10.2282 78.179 10.7686V15.3045H77.4187V10.9808C77.4108 10.5739 77.3264 10.2746 77.1654 10.0831C77.0046 9.89075 76.7433 9.7965 76.3815 9.7965C76.1533 9.79567 75.9267 9.8358 75.7118 9.91512C75.4714 10.0081 75.2423 10.1295 75.029 10.2768C74.7877 10.4384 74.5022 10.644 74.1724 10.8936L74.1246 10.3204C74.5055 9.95887 74.9339 9.65471 75.3971 9.4169C75.7821 9.22028 76.2052 9.11595 76.6347 9.11168Z" fill="#84CC16"/>
<path d="M83.6913 9.11168C84.5276 9.11168 85.1408 9.26942 85.531 9.5849C85.9212 9.90037 86.1202 10.3706 86.1281 10.9956C86.1356 11.5355 86.035 11.951 85.8265 12.2421C85.6179 12.5332 85.268 12.6785 84.7769 12.6781H81.3873V12.0523H84.608C84.9051 12.0523 85.1062 11.9527 85.2113 11.7535C85.3223 11.5215 85.3721 11.2634 85.356 11.0052C85.3477 10.5734 85.2149 10.2642 84.9575 10.0773C84.7001 9.89054 84.29 9.79692 83.7273 9.7965C83.2613 9.7965 82.8914 9.8713 82.6175 10.0209C82.3436 10.1705 82.1507 10.4219 82.039 10.775C81.926 11.1281 81.8696 11.6079 81.8696 12.2145C81.8696 12.8869 81.938 13.4082 82.075 13.7784C82.212 14.1486 82.429 14.4051 82.7261 14.5479C83.0232 14.6928 83.4132 14.7655 83.8961 14.7659C84.2338 14.7659 84.5855 14.7514 84.9513 14.7223C85.3171 14.6932 85.6367 14.6578 85.9102 14.6159L85.9947 15.1519C85.7855 15.2288 85.5691 15.2832 85.3491 15.3141C85.0876 15.3569 84.8187 15.39 84.5422 15.4135C84.2658 15.437 84.0176 15.4497 83.7974 15.4514C83.1378 15.4514 82.609 15.3445 82.2109 15.1308C81.8129 14.917 81.5213 14.5763 81.3364 14.1087C81.1514 13.6384 81.0589 13.0216 81.0589 12.2581C81.0589 11.4694 81.1493 10.8464 81.3302 10.389C81.511 9.93158 81.7947 9.60349 82.1811 9.40471C82.5689 9.20936 83.0722 9.11168 83.6913 9.11168Z" fill="#84CC16"/>
<path d="M89.6984 13.9715C89.7396 13.9639 89.782 13.9667 89.822 13.9796C89.8619 13.9926 89.8983 14.0154 89.9279 14.046C89.9575 14.0766 89.9795 14.1141 89.9921 14.1554C90.0046 14.1967 90.0074 14.2405 90 14.2831V14.9929C90 15.1096 89.9758 15.1904 89.928 15.2366C89.8621 15.2876 89.7804 15.3118 89.6984 15.3045H89.4935C89.3806 15.3045 89.3024 15.2821 89.2583 15.2366C89.2142 15.191 89.1919 15.1083 89.1919 14.9929V14.2831C89.185 14.1983 89.2087 14.1138 89.2583 14.0458C89.3024 13.9965 89.3824 13.9715 89.4935 13.9715H89.6984ZM89.9758 6.64428V10.607L89.9038 12.7127H89.2881L89.2043 10.607V6.64428H89.9758Z" fill="#84CC16"/>
<path d="M1.45492 12.2626C1.39914 12.2626 1.34409 12.2494 1.29404 12.2239C1.244 12.1985 1.20029 12.1615 1.1663 12.1158C0.0546489 10.6275 0.00188968 8.83274 2.7616e-05 8.75707C-0.00227702 8.65742 0.0338342 8.5609 0.100416 8.48875C0.166998 8.4166 0.258596 8.37473 0.355062 8.37235C0.451528 8.36996 0.544958 8.40727 0.614799 8.47605C0.684641 8.54484 0.725171 8.63947 0.727476 8.73912C0.727476 8.76156 0.782717 10.371 1.7423 11.6566C1.78398 11.7122 1.80974 11.7787 1.81666 11.8486C1.82358 11.9185 1.81138 11.9891 1.78145 12.0522C1.75152 12.1153 1.70506 12.1685 1.64734 12.2057C1.58962 12.2429 1.52295 12.2626 1.45492 12.2626Z" fill="#84CC16"/>
<path d="M16.4482 15.1782C16.3674 15.1784 16.2887 15.1508 16.2248 15.0997C16.1608 15.0486 16.1151 14.977 16.095 14.8961C16.0749 14.8152 16.0814 14.7296 16.1135 14.653C16.1457 14.5764 16.2017 14.513 16.2726 14.4729C16.2937 14.4607 17.6499 13.6694 18.3122 12.1978C18.3528 12.1074 18.4266 12.0375 18.5172 12.0032C18.6078 11.969 18.7079 11.9734 18.7954 12.0154C18.8829 12.0574 18.9506 12.1336 18.9837 12.2272C19.0169 12.3208 19.0126 12.4242 18.972 12.5146C18.2048 14.2202 16.6872 15.0955 16.6233 15.1314C16.5697 15.1621 16.5095 15.1783 16.4482 15.1782Z" fill="#84CC16"/>
<path fill-rule="evenodd" clip-rule="evenodd" d="M17.7461 8.26911L2.5597 6.55706C2.44104 6.54339 2.32092 6.55566 2.20714 6.59306C2.09336 6.63046 1.98847 6.69216 1.89927 6.77415C1.81007 6.85614 1.73855 6.95659 1.68937 7.06899C1.64018 7.18138 1.61443 7.3032 1.61377 7.42655C1.61579 8.80686 1.93134 10.1674 2.53503 11.3988C3.13873 12.6302 4.01371 13.698 5.08963 14.5165L4.97915 15.5604C4.95477 15.7926 5.02064 16.0254 5.16227 16.2076C5.3039 16.3897 5.50972 16.5063 5.73453 16.5318L12.5621 17.3013C12.787 17.3265 13.0124 17.2584 13.1888 17.1121C13.3652 16.9658 13.4783 16.7532 13.5031 16.5209L13.6129 15.4764C14.8346 14.9175 15.9123 14.0702 16.7592 13.0026C17.6061 11.935 18.1986 10.677 18.4891 9.32967C18.5144 9.20896 18.5148 9.08408 18.4903 8.96319C18.4658 8.84229 18.4169 8.72809 18.3468 8.62802C18.2767 8.52796 18.187 8.44428 18.0835 8.38244C17.98 8.32059 17.865 8.28198 17.7461 8.26911ZM7.46626 13.5912C7.4465 13.6722 7.40115 13.744 7.3374 13.7953C7.27366 13.8467 7.19515 13.8746 7.11432 13.8746C7.08398 13.8745 7.05376 13.8706 7.02432 13.8631C4.9357 13.3168 3.41998 11.3944 3.41936 9.29249C3.41952 9.19288 3.45789 9.09741 3.52607 9.02698C3.59425 8.95654 3.68667 8.9169 3.78308 8.91673C3.8309 8.91665 3.87826 8.92631 3.92246 8.94515C3.96666 8.964 4.00683 8.99166 4.04067 9.02656C4.07451 9.06146 4.10136 9.10291 4.11968 9.14854C4.138 9.19417 4.14743 9.24309 4.14743 9.29249C4.14743 11.0552 5.43287 12.671 7.20308 13.1346C7.24942 13.1467 7.293 13.1681 7.33132 13.1976C7.36965 13.2271 7.40196 13.2641 7.42641 13.3065C7.45086 13.3489 7.46696 13.3959 7.4738 13.4447C7.48064 13.4936 7.47808 13.5434 7.46626 13.5912Z" fill="#84CC16"/>
<path d="M14.8078 7.93953L15.1249 7.72665C15.9269 7.18674 16.7176 6.7007 17.4755 6.27365C19.2556 5.27785 21.6248 4.09352 22.8004 4.09352C23.3987 4.09352 23.5607 4.40194 23.5917 4.661C23.6613 5.25797 23.1287 5.40801 22.068 5.70618C20.9172 6.02486 18.9931 6.56797 16.2999 8.08316L16.2627 8.10432L14.8078 7.93953Z" fill="#84CC16"/>
<path d="M6.94612 5.6023C6.87208 5.60164 6.80021 5.5764 6.74112 5.53031C6.68203 5.48421 6.63886 5.4197 6.61799 5.34631C6.59711 5.27292 6.59964 5.19454 6.6252 5.12274C6.65076 5.05095 6.69799 4.98955 6.75992 4.94762C6.75992 4.94762 7.07026 4.7264 7.07026 4.39938C7.07026 4.1974 6.98212 3.96272 6.88964 3.71392C6.78102 3.42345 6.6693 3.12337 6.6693 2.80468C6.67046 2.60009 6.7127 2.39796 6.79337 2.2111C6.87403 2.02424 6.99136 1.85671 7.13792 1.7191C7.20778 1.66164 7.29649 1.63441 7.38539 1.64311C7.47429 1.65181 7.55647 1.69577 7.61465 1.76575C7.67283 1.83574 7.70249 1.9263 7.69739 2.0184C7.69229 2.1105 7.65283 2.19697 7.5873 2.25965C7.44454 2.40303 7.36263 2.59902 7.3595 2.80468C7.3595 2.99063 7.44392 3.21698 7.53392 3.45744C7.64502 3.75624 7.76047 4.06467 7.76047 4.39938C7.76047 5.11626 7.16213 5.52728 7.13668 5.54459C7.08007 5.58284 7.01376 5.60292 6.94612 5.6023Z" fill="#84CC16"/>
<path d="M9.97882 5.22138C9.91824 5.22104 9.85879 5.20447 9.80626 5.17328C9.72741 5.12551 9.67008 5.04742 9.64682 4.9561C9.62356 4.86477 9.63625 4.76764 9.68213 4.68596C9.86869 4.31537 9.9696 3.90517 9.97696 3.48753C9.97696 3.1432 9.87889 2.85465 9.77461 2.54943C9.67033 2.24421 9.5673 1.94028 9.5673 1.58761C9.5673 0.86047 10.1036 0.196814 10.1644 0.123074C10.2245 0.0529871 10.3089 0.0101457 10.3993 0.00380869C10.4898 -0.00252832 10.579 0.0281461 10.6477 0.089205C10.7165 0.150264 10.7592 0.236804 10.7666 0.330127C10.7741 0.423449 10.7457 0.516064 10.6877 0.587955C10.5679 0.73287 10.2569 1.19518 10.2569 1.58761C10.2569 1.8178 10.3351 2.04672 10.4257 2.31218C10.5387 2.64433 10.6672 3.01752 10.6672 3.48689C10.66 4.02999 10.527 4.56342 10.2792 5.04248C10.2488 5.09699 10.2051 5.14223 10.1523 5.17365C10.0996 5.20506 10.0397 5.22153 9.97882 5.22138Z" fill="#84CC16"/>
<path d="M12.6714 6.45382C12.6015 6.45382 12.5332 6.43186 12.4756 6.39087C12.418 6.34987 12.3738 6.29177 12.3489 6.22425C12.324 6.15674 12.3196 6.08299 12.3361 6.0128C12.3527 5.94261 12.3895 5.87928 12.4418 5.8312C12.5862 5.67477 12.667 5.46707 12.6677 5.2509C12.6677 5.04058 12.5926 4.80846 12.5125 4.56287C12.4213 4.28202 12.3263 3.99091 12.3263 3.68056C12.3275 3.47596 12.3697 3.27384 12.4504 3.08698C12.531 2.90012 12.6484 2.73259 12.7949 2.59498C12.8643 2.5335 12.9545 2.50302 13.0456 2.51024C13.1368 2.51745 13.2214 2.56177 13.2809 2.63345C13.3404 2.70513 13.3699 2.7983 13.363 2.89246C13.356 2.98662 13.3131 3.07405 13.2437 3.13553C13.1015 3.27925 13.0199 3.47508 13.0165 3.68056C13.0165 3.87292 13.0891 4.09863 13.1661 4.33588C13.2604 4.62507 13.3579 4.92388 13.3579 5.2509C13.3579 5.45852 13.3175 5.66402 13.239 5.85515C13.1605 6.04629 13.0456 6.21914 12.9011 6.36341C12.8378 6.42164 12.7561 6.45382 12.6714 6.45382Z" fill="#84CC16"/>
</g>
<defs>
<clipPath id="clip0">
<rect width="90" height="17.3077" fill="white"/>
</clipPath>
</defs>
</svg>
