<svg width="24" height="24" viewBox="0 0 24 24" fill="none" xmlns="http://www.w3.org/2000/svg">
<g clip-path="url(#clip0)">
<path d="M22.4 20.0007H1.6C1.17565 20.0007 0.768687 19.8321 0.468629 19.532C0.168571 19.232 0 18.825 0 18.4007L0 11.67H1.15267L1.41267 11.0407H1.99467L2.254 11.6673H4.522V11.1907L4.72467 11.6707H5.902L6.10467 11.1827V11.6693H11.74V10.64H11.8467C11.9227 10.6427 11.9447 10.6493 11.9447 10.776V11.6707H14.86V11.4313C15.158 11.5827 15.5093 11.6713 15.882 11.6713L15.9453 11.6707H15.942H17.1687L17.4313 11.044H18.0133L18.27 11.6707H20.634V11.0747L20.9913 11.6707H22.882V7.73467H21.0107V8.19933L20.7487 7.73467H18.8247V8.19933L18.584 7.73467H15.986C15.5924 7.71477 15.2002 7.79578 14.8467 7.97L14.8607 7.964V7.73467H13.0687V7.964C12.8518 7.79303 12.5778 7.71125 12.3027 7.73533H12.3067H5.758L5.31867 8.752L4.86733 7.73533H2.80467V8.2L2.57733 7.73533H0.817333L0.002 9.602V5.602C0.002 5.17765 0.170571 4.77069 0.470629 4.47063C0.770687 4.17057 1.17765 4.002 1.602 4.002H22.402C22.8263 4.002 23.2333 4.17057 23.5334 4.47063C23.8334 4.77069 24.002 5.17765 24.002 5.602V12.5887H22.7533C22.7333 12.5873 22.7093 12.5873 22.686 12.5873C22.3967 12.5873 22.128 12.674 21.904 12.8227L21.9093 12.8193V12.5887H20.0627C19.7742 12.5727 19.4887 12.6547 19.2527 12.8213L19.2567 12.8187V12.588H15.9593V12.8187C15.6894 12.6664 15.3846 12.587 15.0747 12.588H15.0487H15.05H12.8747V12.8187C12.5905 12.6366 12.2532 12.5556 11.9173 12.5887L11.9233 12.588H9.48933L8.932 13.1907L8.41067 12.588H4.77467V16.5267H8.34267L8.91667 15.9147L9.45733 16.5267H11.6567V15.6047H11.9633C12.2582 15.6162 12.5523 15.5669 12.8273 15.46L12.8127 15.4653V16.528H14.626V15.502H14.7133C14.824 15.502 14.8353 15.506 14.8353 15.618V16.5287H20.346L20.4133 16.53C20.7293 16.53 21.024 16.4353 21.2693 16.2733L21.2633 16.2767V16.5287H23.0113L23.0947 16.53C23.422 16.53 23.7333 16.4627 24.016 16.3407L24.0007 16.3467V18.4013C24.0007 18.8257 23.8321 19.2326 23.532 19.5327C23.232 19.8328 22.825 20.0013 22.4007 20.0013L22.4 20.0007ZM14.07 15.9747H13.3913V13.1513H14.9487C15.2299 13.1253 15.5132 13.1726 15.7707 13.2887L15.76 13.2847C15.9687 13.3993 16.108 13.618 16.108 13.8687L16.1067 13.9133V13.9113L16.1073 13.9367C16.1073 14.2607 15.912 14.5393 15.632 14.6607L15.6267 14.6627C15.7607 14.7107 15.8727 14.7927 15.956 14.8987L15.9573 14.9C16.0515 15.0558 16.0909 15.2386 16.0693 15.4193L16.07 15.4153V15.974H15.3927V15.6207C15.4247 15.4283 15.3861 15.2308 15.284 15.0647L15.286 15.068C15.2156 15.0146 15.1352 14.976 15.0494 14.9546C14.9637 14.9331 14.8746 14.9293 14.7873 14.9433L14.7913 14.9427H14.07V15.974V15.9747ZM14.07 13.7347V14.3687H14.89C15.0058 14.3794 15.1223 14.3586 15.2273 14.3087L15.2233 14.3107C15.2662 14.283 15.3015 14.245 15.326 14.2001C15.3504 14.1553 15.3633 14.1051 15.3633 14.054L15.3627 14.0387V14.0393C15.366 13.9884 15.3548 13.9375 15.3303 13.8927C15.3059 13.8478 15.2693 13.8109 15.2247 13.786L15.2233 13.7853C15.1222 13.7401 15.011 13.7217 14.9007 13.732H14.9033L14.07 13.7347ZM8.05333 15.974H5.382V13.1513H8.09533L8.92533 14.0767L9.78333 13.1513H11.9387C12.704 13.1513 13.076 13.456 13.076 14.0813C13.076 14.718 12.6913 15.0273 11.9027 15.0273H11.0593V15.9733H9.748L8.91733 15.0407L8.054 15.974H8.05333ZM10.3873 13.454L9.35133 14.5673L10.3873 15.7167V13.454ZM6.05467 14.824V15.3853H7.71333L8.48 14.5573L7.74267 13.7347H6.054V14.248H7.53533V14.8233L6.05467 14.824ZM11.0593 13.7353V14.454H11.9307C12.1973 14.454 12.3507 14.318 12.3507 14.0807C12.3507 13.854 12.208 13.7347 11.938 13.7347L11.0593 13.7353ZM23.0847 15.9753H21.782V15.3687H23.0793C23.1764 15.382 23.2748 15.3567 23.3533 15.298L23.3527 15.2987C23.3777 15.2754 23.3977 15.2473 23.4113 15.216C23.425 15.1846 23.432 15.1508 23.432 15.1167V15.1147V15.106C23.4321 15.0723 23.4247 15.0389 23.4106 15.0083C23.3964 14.9777 23.3757 14.9505 23.35 14.9287C23.281 14.8788 23.1959 14.8565 23.1113 14.866H23.1127L22.988 14.862C22.3787 14.846 21.6887 14.8273 21.6887 13.992C21.6887 13.5853 21.9433 13.1513 22.656 13.1513H24.0007V13.7527H22.7707C22.6757 13.742 22.5797 13.7611 22.496 13.8073L22.4987 13.806C22.4658 13.8277 22.4393 13.8578 22.422 13.8932C22.4048 13.9286 22.3974 13.9681 22.4007 14.0073V14.0067V14.014C22.4007 14.0589 22.4148 14.1027 22.4412 14.1391C22.4675 14.1755 22.5047 14.2026 22.5473 14.2167L22.5487 14.2173C22.6332 14.2434 22.7217 14.2542 22.81 14.2493H22.808L23.174 14.2587C23.4499 14.2311 23.7255 14.3133 23.9413 14.4873L23.9393 14.486C23.9593 14.502 23.9767 14.5193 23.992 14.5387L23.9927 14.5393L24.0007 15.614C23.8886 15.745 23.7459 15.8464 23.5854 15.9093C23.4248 15.9722 23.2513 15.9947 23.08 15.9747L23.0847 15.9753ZM20.452 15.9753H19.1373V15.3687H20.4453C20.5432 15.3815 20.6423 15.3562 20.722 15.298L20.7207 15.2987C20.7456 15.2753 20.7654 15.2472 20.7789 15.2158C20.7925 15.1845 20.7994 15.1508 20.7993 15.1167V15.1147V15.11C20.7993 15.0757 20.792 15.0418 20.7778 15.0105C20.7637 14.9792 20.7431 14.9514 20.7173 14.9287C20.6471 14.8788 20.561 14.8564 20.4753 14.866H20.4767L20.3527 14.862C19.7453 14.846 19.056 14.8273 19.056 13.992C19.056 13.5853 19.3093 13.1513 20.0207 13.1513H21.3727V13.7527H20.1353C20.041 13.7421 19.9457 13.7612 19.8627 13.8073L19.8653 13.806C19.8303 13.8301 19.8025 13.8632 19.7847 13.9018C19.7669 13.9405 19.7599 13.9832 19.7645 14.0254C19.769 14.0677 19.7848 14.108 19.8103 14.142C19.8358 14.176 19.87 14.2025 19.9093 14.2187L19.9107 14.2193C19.9963 14.2456 20.0859 14.2564 20.1753 14.2513H20.1733L20.5367 14.2607C20.814 14.2339 21.0909 14.3162 21.3087 14.49L21.3067 14.488C21.3799 14.5688 21.4356 14.6638 21.4703 14.7672C21.505 14.8706 21.5178 14.9801 21.508 15.0887V15.0853C21.51 15.674 21.1533 15.974 20.45 15.974L20.452 15.9753ZM18.7333 15.9753H16.48V13.1507H18.7313V13.734H17.1533V14.2473H18.6947V14.8227H17.1533V15.384L18.7333 15.3867V15.9733V15.9753ZM20.0467 11.118H18.6727L18.41 10.4887H17.0087L16.754 11.118H15.9647C15.6102 11.1367 15.2611 11.025 14.9833 10.804L14.9867 10.806C14.8547 10.6603 14.7545 10.4888 14.6925 10.3023C14.6306 10.1157 14.6081 9.91834 14.6267 9.72267L14.626 9.728C14.6088 9.52872 14.6324 9.32803 14.6952 9.13813C14.758 8.94823 14.8587 8.77308 14.9913 8.62333L14.99 8.62467C15.13 8.50225 15.2937 8.40996 15.4709 8.35354C15.6481 8.29711 15.835 8.27775 16.02 8.29667L16.0147 8.296H16.668V8.898H16.028C15.9344 8.88594 15.8392 8.89468 15.7493 8.9236C15.6594 8.95252 15.577 9.00092 15.508 9.06533L15.5087 9.06467C15.3661 9.2472 15.2969 9.47641 15.3147 9.70733V9.704C15.2934 9.94124 15.3601 10.178 15.502 10.3693L15.5 10.3667C15.6325 10.475 15.8022 10.5271 15.9727 10.512H15.97H16.2727L17.2267 8.292H18.24L19.382 10.9587V8.292H20.4093L21.5947 10.2573V8.292H22.288V11.1133H21.3253L20.0453 8.99467V11.1133L20.0467 11.118ZM17.714 8.77267L17.2493 9.898H18.1807L17.714 8.77267ZM11.1813 11.1167H10.5067V8.294H12.0587C12.342 8.2646 12.6279 8.31276 12.886 8.43333L12.876 8.42933C12.9798 8.48671 13.0663 8.57083 13.1265 8.67294C13.1868 8.77505 13.2186 8.89143 13.2187 9.01L13.2173 9.05667V9.05467V9.07533C13.2174 9.2293 13.173 9.38001 13.0895 9.50938C13.006 9.63875 12.887 9.74128 12.7467 9.80467L12.7413 9.80667C12.8753 9.85733 12.988 9.93867 13.074 10.0427L13.0753 10.044C13.1705 10.2004 13.2097 10.3844 13.1867 10.566L13.1873 10.562V11.116H12.5067L12.504 10.76V10.7067C12.5282 10.5326 12.4897 10.3556 12.3953 10.2073L12.3973 10.2107C12.3267 10.1588 12.2465 10.1214 12.1614 10.1007C12.0763 10.08 11.9879 10.0764 11.9013 10.09L11.9053 10.0893H11.182V11.116L11.1813 11.1167ZM11.1813 8.88133V9.508H12C12.1156 9.52055 12.2325 9.49973 12.3367 9.448L12.3333 9.44933C12.376 9.42337 12.4113 9.38686 12.4359 9.34331C12.4604 9.29977 12.4733 9.25064 12.4733 9.20067L12.4727 9.182V9.18267C12.4761 9.13201 12.4645 9.08147 12.4395 9.03728C12.4146 8.99309 12.3772 8.95719 12.332 8.934L12.3307 8.93333C12.2292 8.88981 12.1187 8.87151 12.0087 8.88H12.0107L11.1813 8.88133ZM4.03733 11.1167H2.66667L2.40733 10.4873H1.002L0.740667 11.1167H0.00733333L1.216 8.294H2.218L3.36533 10.9653V8.294H4.466L5.34867 10.208L6.16 8.294H7.28333V11.1153H6.59L6.58867 8.90733L5.61067 11.116H5.01867L4.038 8.904V11.116L4.03733 11.1167ZM1.70133 8.77267L1.242 9.898H2.16333L1.70133 8.77267ZM14.2933 11.116H13.6053V8.294H14.294V11.1153L14.2933 11.116ZM10.036 11.116H7.78667V8.294H10.04V8.88067H8.46133V9.38933H10.002V9.96867H8.46V10.5327H10.0387V11.1153L10.036 11.116Z" fill="#4B5563"/>
</g>
<defs>
<clipPath id="clip0">
<rect width="24" height="16" fill="white" transform="translate(0 4)"/>
</clipPath>
</defs>
</svg>
