<svg width="24" height="24" viewBox="0 0 24 24" fill="none" xmlns="http://www.w3.org/2000/svg">
<path d="M4.38677 8.28525C4.10477 8.62125 3.65552 8.8875 3.20702 8.8485C3.14777 8.3955 3.37127 7.91025 3.62927 7.6095C3.91052 7.26675 4.40252 7.02075 4.80152 7.0005C4.84877 7.47375 4.66427 7.93875 4.38752 8.28525H4.38677ZM4.79702 8.93775C4.14527 8.898 3.58577 9.312 3.27677 9.312C2.96102 9.312 2.48777 8.95725 1.97252 8.96925C1.30427 8.9775 0.679518 9.35925 0.339768 9.9735C-0.367482 11.1953 0.156018 13.0043 0.835518 14.0003C1.16777 14.4923 1.56527 15.0315 2.08952 15.0165C2.58527 14.9963 2.78477 14.6888 3.38252 14.6888C3.98777 14.6888 4.15952 15.0165 4.68752 15.0045C5.22977 14.9963 5.57327 14.5125 5.90552 14.0205C6.28427 13.4618 6.44027 12.9143 6.44852 12.8873C6.44027 12.8753 5.39777 12.4733 5.39027 11.262C5.38202 10.2458 6.21002 9.762 6.24527 9.73425C5.78027 9.0315 5.04602 8.95725 4.79627 8.9385L4.79702 8.93775ZM8.55902 7.56225V14.9535H9.69527V12.4268H11.2665C12.6998 12.4268 13.7078 11.4308 13.7078 9.993C13.7078 8.55225 12.72 7.563 11.3055 7.563L8.55902 7.56225ZM9.69527 8.53125H11.004C11.988 8.53125 12.5513 9.06225 12.5513 9.996C12.5513 10.9298 11.988 11.4653 10.9965 11.4653H9.69527V8.53125ZM15.777 15.0083C16.4918 15.0083 17.1518 14.6453 17.4533 14.0663H17.4773V14.9535H18.5273V11.2733C18.5273 10.2113 17.6843 9.5205 16.383 9.5205C15.18 9.5205 14.289 10.2195 14.2583 11.1765H15.2775C15.3638 10.7198 15.7778 10.4228 16.3523 10.4228C17.0475 10.4228 17.4345 10.7505 17.4345 11.3528V11.7585L16.0208 11.8448C14.7 11.9265 13.989 12.4695 13.989 13.419C13.989 14.376 14.724 15.009 15.7778 15.009L15.777 15.0083ZM16.086 14.133C15.48 14.133 15.0938 13.8398 15.0938 13.3913C15.0938 12.9263 15.465 12.6525 16.1715 12.609L17.4338 12.531V12.9488C17.4338 13.641 16.8518 14.133 16.0815 14.133H16.086ZM19.9298 16.965C21.0345 16.965 21.555 16.5353 22.008 15.2423L24 9.594H22.848L21.5123 13.9568H21.4883L20.1525 9.594H18.9653L20.8875 14.973L20.7855 15.3008C20.6093 15.852 20.3288 16.0658 19.8285 16.0658C19.7385 16.0658 19.5668 16.0545 19.4963 16.047V16.9343C19.5623 16.953 19.8443 16.9613 19.926 16.9613L19.9298 16.965Z" fill="#4B5563"/>
</svg>
