<svg width="24" height="24" viewBox="0 0 24 24" fill="none" xmlns="http://www.w3.org/2000/svg">
<g clip-path="url(#clip0)">
<path d="M23.9997 9.99976L20.867 16.9995H19.898L21.062 14.55L18.9995 9.99901H20.0187L21.5112 13.4873H21.5307L22.976 9.99901L23.9997 9.99976ZM10.9842 12.1643V15H9.99947V8.00026H12.605C13.2235 7.9833 13.8258 8.19932 14.2925 8.60551C14.7537 8.98426 15.0072 9.51976 14.9997 10.086C15.0029 10.371 14.9408 10.6529 14.8182 10.9102C14.6956 11.1674 14.5158 11.3932 14.2925 11.5703C13.8395 11.9685 13.277 12.1643 12.605 12.1643H10.9842ZM10.9805 8.86351V11.3048H12.629C12.9879 11.3176 13.3374 11.1886 13.6017 10.9455C13.856 10.719 13.9962 10.41 13.9962 10.0898C13.9962 9.76576 13.8552 9.45676 13.6017 9.23401C13.4723 9.11078 13.3196 9.0145 13.1526 8.95077C12.9856 8.88704 12.8076 8.85712 12.629 8.86276L10.9805 8.86351ZM16.9722 9.99976C17.597 9.99976 18.0935 10.1753 18.4565 10.5233C18.8195 10.8713 18.9995 11.3475 18.9995 11.9528V14.847H18.1872V14.1945H18.152C17.8002 14.73 17.3352 14.9993 16.7532 14.9993C16.253 14.9993 15.839 14.847 15.503 14.538C15.3409 14.3945 15.2118 14.2175 15.1248 14.0193C15.0378 13.821 14.9949 13.6062 14.999 13.3898C14.999 12.9053 15.1745 12.519 15.53 12.2295C15.8817 11.9445 16.3542 11.7998 16.9437 11.7998C17.4477 11.7998 17.8617 11.8973 18.1857 12.0885V11.8853C18.1868 11.7377 18.1563 11.5917 18.0962 11.4569C18.0362 11.3221 17.9481 11.2017 17.8377 11.1038C17.6154 10.8957 17.3217 10.781 17.0172 10.7835C16.5447 10.7835 16.1697 10.9905 15.8922 11.4045L15.146 10.92C15.5562 10.3065 16.1652 9.99826 16.97 9.99826L16.9722 9.99976ZM15.875 13.41C15.8733 13.5211 15.8979 13.6311 15.9468 13.7309C15.9957 13.8308 16.0674 13.9177 16.1562 13.9845C16.3437 14.1368 16.5785 14.2193 16.8162 14.2148C17.1717 14.2148 17.5152 14.0663 17.7695 13.8045C18.0387 13.5548 18.1917 13.203 18.1917 12.8355C17.9262 12.6165 17.5587 12.507 17.0862 12.507C16.7382 12.507 16.4532 12.5933 16.223 12.765C15.9927 12.9405 15.875 13.1528 15.875 13.41ZM4.08197 8.00026C5.09177 7.98808 6.06827 8.36114 6.81272 9.04351L5.64872 10.1843C5.22351 9.78976 4.6619 9.57549 4.08197 9.58651C3.5759 9.58898 3.08316 9.74907 2.67226 10.0445C2.26137 10.3399 1.95272 10.7561 1.78922 11.235C1.61744 11.7311 1.61744 12.2705 1.78922 12.7665C1.95272 13.2455 2.26137 13.6616 2.67226 13.957C3.08316 14.2524 3.5759 14.4125 4.08197 14.415C4.63247 14.415 5.10572 14.2785 5.47247 14.0363C5.68347 13.8989 5.8643 13.7199 6.00394 13.5104C6.14358 13.3009 6.23911 13.0651 6.28472 12.8175H4.08122V11.2785H7.92872C7.97597 11.5478 7.99922 11.8178 7.99922 12.0908C7.99922 13.3095 7.55372 14.3408 6.78422 15.036C6.10847 15.6458 5.18297 16.0005 4.08122 16.0005C3.32921 16.0043 2.5907 15.8007 1.94695 15.4119C1.30321 15.0231 0.779162 14.4644 0.432474 13.797C0.147436 13.2409 -0.0012207 12.6249 -0.0012207 12C-0.0012207 11.3751 0.147436 10.7591 0.432474 10.203C0.778746 9.53628 1.30207 8.97789 1.94496 8.58917C2.58786 8.20044 3.32545 7.99642 4.07672 7.99951L4.08197 8.00026Z" fill="#4B5563"/>
</g>
<defs>
<clipPath id="clip0">
<rect width="24" height="24" fill="white"/>
</clipPath>
</defs>
</svg>
