<svg width="24" height="16" viewBox="0 0 24 16" fill="none" xmlns="http://www.w3.org/2000/svg">
<path d="M22.4 16H1.6C1.17565 16 0.768687 15.8314 0.468629 15.5314C0.168571 15.2313 0 14.8243 0 14.4L0 1.6C0 1.17565 0.168571 0.768687 0.468629 0.468629C0.768687 0.168571 1.17565 0 1.6 0L22.4 0C22.8243 0 23.2313 0.168571 23.5314 0.468629C23.8314 0.768687 24 1.17565 24 1.6V14.4C24 14.8243 23.8314 15.2313 23.5314 15.5314C23.2313 15.8314 22.8243 16 22.4 16ZM9.744 9.43667V14.0007H12.646C13.1704 14.0001 13.6732 13.7916 14.0441 13.4207C14.4149 13.0499 14.6235 12.5471 14.624 12.0227V2.13267H11.7227C11.1981 2.13302 10.6951 2.34151 10.3242 2.71236C9.95319 3.08321 9.74453 3.58612 9.744 4.11067V6.69733C10.4377 6.21092 11.2806 5.98455 12.1247 6.058L12.1113 6.05733C12.238 6.05733 12.374 6.06067 12.5147 6.06667C13.0853 6.104 13.6153 6.18867 14.128 6.318L14.0667 6.30467V7.142C13.6069 6.89495 13.1005 6.7471 12.58 6.708L12.5673 6.70733C12.5005 6.70283 12.4336 6.7006 12.3667 6.70067C11.424 6.70067 10.8613 7.21133 10.8613 8.066C10.8515 8.25877 10.8843 8.45134 10.9575 8.62998C11.0306 8.80862 11.1422 8.96894 11.2843 9.09951C11.4265 9.23008 11.5957 9.32769 11.7799 9.38539C11.9641 9.44309 12.1588 9.45946 12.35 9.43333L12.3433 9.434C12.414 9.434 12.4893 9.43067 12.5673 9.42467C13.0993 9.38042 13.6168 9.22893 14.0887 8.97933L14.0673 8.99V9.82733H14.0613C13.5626 9.95285 13.0533 10.0319 12.54 10.0633L12.5147 10.0647C12.374 10.0713 12.2387 10.074 12.1113 10.074C11.2673 10.1438 10.4255 9.91521 9.73267 9.428L9.744 9.436V9.43667ZM15.1993 9.97V13.9913H18.1013C18.6258 13.9908 19.1286 13.7822 19.4994 13.4114C19.8702 13.0406 20.0788 12.5378 20.0793 12.0133V2.13333H17.188C16.6636 2.13386 16.1609 2.34245 15.7902 2.7133C15.4194 3.08415 15.211 3.58696 15.2107 4.11133V6.16533H18.0033L18.0387 6.16467C18.0953 6.16467 18.1507 6.16867 18.2047 6.17733L18.1987 6.17667C18.876 6.21133 19.296 6.56467 19.296 7.10067C19.2885 7.33709 19.1912 7.56177 19.0238 7.72897C18.8565 7.89617 18.6318 7.99333 18.3953 8.00067H18.394V8.02267C19.07 8.068 19.524 8.45267 19.524 8.97867C19.524 9.56133 19.0053 9.96733 18.264 9.96733L15.1993 9.97ZM4.26667 9.81667V13.9767H7.16867C7.69264 13.976 8.19497 13.7676 8.5656 13.3972C8.93623 13.0268 9.14494 12.5246 9.146 12.0007V2.134H6.25533C5.73096 2.13453 5.22822 2.34312 4.8575 2.71397C4.48677 3.08482 4.27835 3.58763 4.278 4.112V8.99133C4.77267 9.256 5.358 9.41933 5.97933 9.43733H5.98467C6.11723 9.45316 6.25165 9.44071 6.37905 9.4008C6.50646 9.36089 6.62395 9.29443 6.7238 9.2058C6.82364 9.11717 6.90357 9.00838 6.9583 8.88661C7.01303 8.76483 7.04133 8.63284 7.04133 8.49933L7.04067 8.45733V8.45933V6.15533H8.736V8.44867C8.736 9.52333 7.91667 10.0687 6.302 10.0687C5.57933 10.0687 4.878 9.97733 4.20933 9.80533L4.26733 9.818L4.26667 9.81667ZM16.1773 8.29533V9.33867H17.318C17.3347 9.33867 17.362 9.336 17.3887 9.33333C17.4153 9.33067 17.442 9.328 17.4593 9.328C17.573 9.30362 17.6749 9.24103 17.7481 9.15067C17.8212 9.0603 17.8612 8.9476 17.8613 8.83133V8.816V8.81667C17.861 8.69944 17.8217 8.58566 17.7495 8.4933C17.6773 8.40094 17.5764 8.33527 17.4627 8.30667L17.4593 8.306C17.4216 8.29807 17.3832 8.29404 17.3447 8.294L17.3173 8.29467H17.3187L16.1773 8.29533ZM16.1773 6.75267V7.70867H17.2107L17.2333 7.70933C17.2625 7.70924 17.2914 7.70498 17.3193 7.69667L17.3173 7.69733C17.428 7.67937 17.5288 7.62267 17.6016 7.53735C17.6744 7.45202 17.7145 7.34362 17.7148 7.23146C17.7152 7.11931 17.6756 7.01068 17.6033 6.92494C17.531 6.8392 17.4306 6.78193 17.32 6.76333L17.3173 6.76267C17.3017 6.7622 17.2861 6.76064 17.2707 6.758H17.2733C17.2524 6.75482 17.2312 6.75282 17.21 6.752H17.2093L16.1773 6.75267Z" fill="#4B5563"/>
</svg>
