<svg width="24" height="24" viewBox="0 0 24 24" fill="none" xmlns="http://www.w3.org/2000/svg">
<path d="M4.69165 4H10.6708C11.5055 4 12.0246 4.68034 11.83 5.51781L9.04615 17.4695C8.84975 18.3041 8.01397 18.985 7.17884 18.985H1.20012C0.366685 18.985 -0.153627 18.3041 0.0410915 17.4695L2.82603 5.51781C3.02075 4.68034 3.85597 4 4.69165 4Z" fill="#4B5563"/>
<path d="M10.1731 4H17.0491C17.8836 4 17.5074 4.68034 17.3111 5.51781L14.5276 17.4695C14.3324 18.3041 14.3933 18.985 13.557 18.985H6.68114C5.84489 18.985 5.32739 18.3041 5.5238 17.4695L8.30695 5.51781C8.50458 4.68034 9.33811 4 10.1731 4Z" fill="#4B5563"/>
<path d="M16.7764 4H22.7556C23.5915 4 24.1106 4.68034 23.9144 5.51781L21.1309 17.4695C20.9345 18.3041 20.0983 18.985 19.2625 18.985H13.2861C12.4499 18.985 11.9311 18.3041 12.1271 17.4695L14.9108 5.51781C15.1055 4.68034 15.9402 4 16.7764 4Z" fill="#4B5563"/>
<path d="M6.25303 7.83025C5.63821 7.83653 5.45662 7.83025 5.39859 7.81656C5.37628 7.9225 4.96134 9.8365 4.96021 9.8381C4.87087 10.2253 4.8059 10.5014 4.58503 10.6796C4.45978 10.7832 4.31343 10.8333 4.14374 10.8333C3.87112 10.8333 3.71221 10.6978 3.68559 10.441L3.68043 10.3529C3.68043 10.3529 3.76349 9.83416 3.76349 9.83125C3.76349 9.83125 4.19896 8.08703 4.27696 7.8565C4.28109 7.84338 4.28221 7.83653 4.28324 7.83025C3.43565 7.83775 3.28537 7.83025 3.27506 7.81656C3.26934 7.83531 3.24834 7.9435 3.24834 7.9435L2.80368 9.90944L2.76553 10.0761L2.69165 10.6215C2.69165 10.7832 2.72343 10.9153 2.78662 11.0269C2.98921 11.3809 3.56709 11.434 3.89399 11.434C4.31512 11.434 4.71028 11.3445 4.97728 11.1811C5.44068 10.9073 5.56199 10.4793 5.67009 10.0988L5.72024 9.90372C5.72024 9.90372 6.16884 8.09219 6.24506 7.8565C6.24787 7.84338 6.24909 7.83653 6.25303 7.83025ZM7.77927 9.29163C7.67118 9.29163 7.47365 9.31788 7.29609 9.40488C7.23168 9.43797 7.17074 9.47613 7.10643 9.51419L7.16446 9.30475L7.13268 9.2695C6.75628 9.34572 6.67199 9.35594 6.32428 9.40488L6.29521 9.42428C6.25481 9.75897 6.2189 10.0107 6.06928 10.6687C6.01194 10.9121 5.95344 11.1553 5.89378 11.3981L5.90971 11.4288C6.26615 11.41 6.37424 11.41 6.68399 11.4151L6.70902 11.3879C6.7484 11.1863 6.75346 11.1391 6.84065 10.7308C6.88162 10.5373 6.96703 10.112 7.00912 9.96063C7.08646 9.92472 7.16287 9.88947 7.23571 9.88947C7.40934 9.88947 7.38815 10.0409 7.38149 10.1013C7.37399 10.2025 7.31081 10.5333 7.24593 10.8174L7.20262 11.0007C7.17253 11.1362 7.13943 11.2677 7.10924 11.4019L7.12237 11.4288C7.47356 11.41 7.58071 11.41 7.88062 11.4151L7.91587 11.3879C7.97015 11.0731 7.98599 10.9888 8.08218 10.5304L8.13056 10.3199C8.22459 9.90766 8.27184 9.69869 8.20068 9.52844C8.12549 9.33766 7.94502 9.29163 7.77937 9.29163H7.77927ZM9.4844 9.72316C9.29765 9.75906 9.17859 9.78288 9.06027 9.79835C8.94299 9.8171 8.82853 9.83425 8.64815 9.85928L8.63381 9.87222L8.62068 9.88253C8.60193 10.017 8.58881 10.1331 8.56387 10.2697C8.54278 10.4109 8.51024 10.5714 8.45737 10.8019C8.4164 10.9784 8.39531 11.0399 8.37196 11.1019C8.34918 11.1641 8.32415 11.2245 8.27812 11.398L8.2889 11.414L8.2979 11.4288C8.46656 11.4208 8.5769 11.4151 8.69024 11.414C8.80349 11.41 8.92087 11.414 9.10237 11.415L9.11831 11.4021L9.13537 11.3878C9.16162 11.2312 9.16546 11.1891 9.18149 11.1128C9.19743 11.0309 9.22481 10.9175 9.29202 10.6146C9.32381 10.4724 9.35915 10.3306 9.39215 10.1854C9.42637 10.0409 9.46218 9.89856 9.49631 9.75625L9.49124 9.7391L9.4844 9.72316ZM9.48834 9.14135C9.31865 9.04122 9.02099 9.073 8.82056 9.21128C8.62077 9.34685 8.59799 9.53922 8.76712 9.64066C8.93381 9.73797 9.23268 9.709 9.43134 9.5695C9.63074 9.43103 9.65568 9.24044 9.48834 9.14135ZM10.5142 11.4602C10.8575 11.4602 11.2093 11.3655 11.4741 11.0849C11.6779 10.8573 11.7713 10.5185 11.8037 10.379C11.909 9.91675 11.8269 9.70094 11.724 9.5695C11.5674 9.36906 11.2908 9.30475 11.0038 9.30475C10.8313 9.30475 10.4203 9.32181 10.0992 9.61788C9.86859 9.83135 9.76209 10.1211 9.69787 10.3988C9.63299 10.6819 9.55837 11.1914 10.0269 11.381C10.1715 11.4431 10.3799 11.4602 10.5142 11.4602ZM10.4874 10.42C10.5666 10.0699 10.66 9.77613 10.8984 9.77613C11.0853 9.77613 11.0989 9.99475 11.0158 10.3459C11.0009 10.4239 10.9327 10.7138 10.8405 10.8372C10.776 10.9283 10.6999 10.9835 10.6155 10.9835C10.5905 10.9835 10.4414 10.9835 10.4391 10.7622C10.4379 10.6529 10.4602 10.5412 10.4874 10.42ZM12.6616 11.4152L12.6884 11.3879C12.7265 11.1863 12.7327 11.139 12.8169 10.7309C12.8591 10.5373 12.9463 10.1121 12.9872 9.96063C13.0647 9.92463 13.1398 9.88938 13.215 9.88938C13.3874 9.88938 13.3664 10.0408 13.3596 10.1012C13.3533 10.2026 13.29 10.5333 13.224 10.8173L13.183 11.0006C13.1517 11.1362 13.1176 11.2676 13.0874 11.402L13.1005 11.4288C13.453 11.4101 13.556 11.4101 13.8576 11.4152L13.8941 11.3879C13.947 11.0729 13.9613 10.9887 14.0604 10.5304L14.1076 10.3198C14.2021 9.90756 14.2499 9.69878 14.1799 9.52853C14.1025 9.33775 13.9209 9.29172 13.7575 9.29172C13.6492 9.29172 13.4507 9.31778 13.2741 9.40497C13.2111 9.43797 13.1478 9.47603 13.0857 9.51428L13.1398 9.30485L13.1107 9.26941C12.7344 9.34572 12.6486 9.35594 12.3012 9.40497L12.2745 9.42428C12.2324 9.75906 12.1982 10.0106 12.0486 10.6688C11.9912 10.9122 11.9327 11.1553 11.8731 11.3981L11.8891 11.4288C12.246 11.4101 12.3525 11.4101 12.6616 11.4152ZM15.2508 11.4288C15.2729 11.3206 15.4045 10.6797 15.4056 10.6797C15.4056 10.6797 15.5177 10.2093 15.5246 10.1923C15.5246 10.1923 15.5599 10.1433 15.5951 10.1239H15.647C16.1365 10.1239 16.6894 10.1239 17.1226 9.80519C17.4174 9.58656 17.619 9.26378 17.7089 8.87144C17.7322 8.77525 17.7494 8.66088 17.7494 8.5465C17.7494 8.39622 17.7193 8.24753 17.6321 8.13138C17.4111 7.82228 16.9712 7.81656 16.4632 7.81422L16.2129 7.81656C15.5628 7.82463 15.3021 7.82228 15.1949 7.80916C15.1859 7.8565 15.1688 7.94078 15.1688 7.94078C15.1688 7.94078 14.936 9.02013 14.936 9.02181L14.3524 11.4248C14.92 11.418 15.1528 11.418 15.2508 11.4288ZM15.6823 9.51138C15.6823 9.51138 15.9298 8.43419 15.9287 8.43831L15.9367 8.383L15.9402 8.341L16.0392 8.35113C16.0392 8.35113 16.5499 8.395 16.5618 8.39613C16.7633 8.47413 16.8464 8.67513 16.7885 8.93744C16.7355 9.17725 16.5801 9.37881 16.3802 9.47613C16.2156 9.55863 16.0141 9.56547 15.8064 9.56547H15.6721L15.6823 9.51138ZM17.2239 10.44C17.1585 10.7189 17.0833 11.2284 17.5495 11.41C17.6982 11.4732 17.8314 11.492 17.9667 11.4852C18.1098 11.4775 18.2422 11.4058 18.365 11.3026L18.3317 11.43L18.3529 11.4572C18.6882 11.4431 18.7923 11.4431 19.1556 11.4459L19.1886 11.4208C19.2415 11.1089 19.2916 10.8061 19.4295 10.2093C19.4966 9.9236 19.5637 9.64056 19.6326 9.35594L19.6218 9.32463C19.2467 9.3941 19.1465 9.409 18.7855 9.4601L18.7582 9.48241C18.7545 9.51147 18.7506 9.53931 18.7472 9.56716C18.6911 9.4765 18.6097 9.39906 18.4843 9.35088C18.3238 9.28769 17.9469 9.36906 17.623 9.664C17.3953 9.87466 17.286 10.1632 17.2239 10.44ZM18.0118 10.457C18.0921 10.1132 18.1843 9.82235 18.4234 9.82235C18.5745 9.82235 18.6541 9.96175 18.6379 10.1996C18.624 10.2639 18.6096 10.3281 18.5947 10.3922C18.5708 10.4943 18.545 10.5956 18.5197 10.697C18.4941 10.7664 18.4641 10.8318 18.4314 10.8754C18.3699 10.9626 18.2236 11.0166 18.1393 11.0166C18.1154 11.0166 17.9679 11.0166 17.9629 10.7991C17.9616 10.6909 17.984 10.5794 18.0118 10.4569V10.457ZM22.1261 9.32181L22.0971 9.28872C21.7259 9.36391 21.6587 9.37591 21.3177 9.42194L21.2926 9.44697C21.2915 9.4511 21.2904 9.45728 21.2887 9.463L21.2875 9.45738C21.0336 10.0431 21.0411 9.91675 20.8344 10.3778C20.8332 10.3568 20.8332 10.3438 20.8321 10.3215L20.7803 9.32181L20.7479 9.28872C20.359 9.36391 20.3498 9.37591 19.9908 9.42194L19.9627 9.44697C19.9588 9.45897 19.9588 9.4721 19.9565 9.48635L19.9588 9.4915C20.0037 9.72081 19.9929 9.66963 20.0379 10.0317C20.0589 10.2093 20.087 10.388 20.1079 10.5635C20.1433 10.8572 20.1632 11.0017 20.2064 11.4499C19.964 11.8501 19.9065 12.0016 19.673 12.3528L19.6747 12.3562L19.5102 12.6163C19.4915 12.6437 19.4744 12.6624 19.4505 12.6705C19.4242 12.6834 19.3901 12.6858 19.3428 12.6858H19.2516L19.1163 13.1361L19.5808 13.1441C19.8534 13.143 20.0248 13.0155 20.1171 12.8441L20.4092 12.3436H20.4045L20.4352 12.3083C20.6317 11.8854 22.1261 9.32181 22.1261 9.32181ZM17.2239 15.2363H17.0269L17.7562 12.8241H17.9981L18.075 12.5757L18.0823 12.852C18.0733 13.0228 18.2077 13.1742 18.5606 13.1492H18.9689L19.1093 12.6847H18.9558C18.8675 12.6847 18.8264 12.6624 18.8316 12.6146L18.8241 12.3334H18.0682V12.3349C17.8238 12.34 17.0939 12.3584 16.9461 12.3978C16.7674 12.4437 16.5789 12.5793 16.5789 12.5793L16.653 12.3305H15.9458L15.7985 12.8241L15.0594 15.2732H14.916L14.7754 15.7343H16.1838L16.1366 15.8881H16.8306L16.8767 15.7343H17.0713L17.2239 15.2363ZM16.6461 13.3143C16.5328 13.3456 16.3221 13.4406 16.3221 13.4406L16.5096 12.8241H17.0713L16.9358 13.2733C16.9358 13.2733 16.7622 13.2836 16.6461 13.3143H16.6461ZM16.6568 14.1949C16.6568 14.1949 16.4804 14.2172 16.3642 14.2433C16.2499 14.278 16.0353 14.3873 16.0353 14.3873L16.2289 13.7458H16.7935L16.6568 14.1949ZM16.342 15.2419H15.7785L15.9419 14.7005H16.5036L16.342 15.2419ZM17.6992 13.7458H18.5116L18.3949 14.1239H17.5717L17.4482 14.5371H18.1685L17.623 15.305C17.5849 15.3615 17.5506 15.3814 17.5126 15.3973C17.4744 15.4167 17.4243 15.4395 17.3663 15.4395H17.1665L17.0292 15.8921H17.5518C17.8235 15.8921 17.984 15.7685 18.1024 15.6063L18.4764 15.0945L18.5567 15.6142C18.5737 15.7115 18.6437 15.7685 18.691 15.7907C18.7433 15.8169 18.7974 15.8619 18.8738 15.8687C18.9557 15.8721 19.0148 15.8749 19.0542 15.8749H19.3111L19.4652 15.3683H19.364C19.3058 15.3683 19.2056 15.3586 19.1886 15.3404C19.1715 15.3182 19.1715 15.2841 19.1624 15.2322L19.0808 14.7113H18.7473L18.8936 14.5371H19.7152L19.8415 14.1239H19.0809L19.1993 13.7458H19.9577L20.0983 13.2796H17.8376L17.6992 13.7458ZM10.8382 15.3472L11.0277 14.7165H11.8071L11.9494 14.2473H11.1694L11.2884 13.8591H12.0506L12.1919 13.4048H10.2847L10.1465 13.8591H10.5798L10.4642 14.2473H10.0297L9.88574 14.7244H10.3189L10.0661 15.559C10.0321 15.6694 10.0821 15.7115 10.1139 15.7629C10.1465 15.8129 10.1794 15.846 10.2534 15.8647C10.3298 15.8818 10.3821 15.892 10.4532 15.892H11.3317L11.4883 15.3723L11.0989 15.4258C11.0237 15.4258 10.8154 15.4168 10.8382 15.3472ZM10.9275 12.3277L10.7301 12.6846C10.6879 12.7625 10.6497 12.811 10.6155 12.8332C10.5853 12.852 10.5255 12.8599 10.439 12.8599H10.3359L10.1982 13.3165H10.5404C10.705 13.3165 10.8313 13.2562 10.8917 13.226C10.9566 13.1913 10.9736 13.2111 11.0237 13.1628L11.1393 13.0626H12.2078L12.3497 12.5873H11.5674L11.704 12.3276H10.9275V12.3277ZM12.505 15.3564C12.4868 15.3302 12.5 15.2839 12.5278 15.1878L12.8198 14.2211H13.8589C14.0103 14.2189 14.1195 14.2172 14.1907 14.2121C14.2671 14.204 14.3501 14.1768 14.4406 14.1278C14.5341 14.0765 14.5819 14.0224 14.6222 13.9604C14.6672 13.8985 14.7396 13.7628 14.8016 13.5539L15.1687 12.3305L14.0906 12.3368C14.0906 12.3368 13.7586 12.3858 13.6124 12.4399C13.4649 12.5002 13.2542 12.6687 13.2542 12.6687L13.3515 12.3333H12.6855L11.7531 15.4258C11.72 15.5458 11.6977 15.633 11.6927 15.6854C11.691 15.7417 11.7638 15.7976 11.8111 15.8397C11.8669 15.8818 11.9494 15.8749 12.0285 15.8818C12.1117 15.8881 12.2301 15.892 12.3935 15.892H12.9053L13.0624 15.3615L12.6042 15.4048C12.5552 15.4048 12.5198 15.3785 12.505 15.3564ZM13.0083 13.5682H14.0995L14.0302 13.7856C14.0205 13.7907 13.9972 13.7748 13.8861 13.788H12.9411L13.0083 13.5682ZM13.2269 12.8388H14.3274L14.2482 13.1008C14.2482 13.1008 13.7296 13.0957 13.6465 13.111C13.2809 13.1743 13.0674 13.3696 13.0674 13.3696L13.2269 12.8389V12.8388ZM14.0547 14.5138C14.0456 14.5463 14.0313 14.5661 14.0114 14.581C13.9892 14.5953 13.9533 14.6003 13.8998 14.6003H13.7444L13.7536 14.3356H13.1067L13.0805 15.6302C13.0795 15.7235 13.0885 15.7776 13.1569 15.8209C13.2253 15.8749 13.4359 15.8819 13.7194 15.8819H14.1247L14.2709 15.3972L13.9181 15.4166L13.8007 15.4234C13.7848 15.4166 13.7694 15.4103 13.7524 15.3933C13.7376 15.3786 13.7124 15.3876 13.7166 15.2943L13.7194 14.9624L14.0893 14.9471C14.2892 14.9471 14.3746 14.882 14.4474 14.8202C14.5169 14.7608 14.5397 14.6927 14.5659 14.6003L14.628 14.3065H14.1195L14.0546 14.5137L14.0547 14.5138Z" fill="white"/>
</svg>
