<svg width="24" height="24" viewBox="0 0 24 24" fill="none" xmlns="http://www.w3.org/2000/svg">
<path d="M16.539 9.186C16.0742 9.01661 15.5828 8.93161 15.088 8.935C13.488 8.935 12.358 9.741 12.35 10.898C12.34 11.748 13.153 12.227 13.768 12.511C14.399 12.803 14.61 12.987 14.608 13.248C14.604 13.645 14.104 13.825 13.639 13.825C13 13.825 12.651 13.736 12.114 13.513L11.915 13.42L11.688 14.752C12.077 14.914 12.778 15.053 13.502 15.065C15.203 15.065 16.315 14.264 16.328 13.033C16.342 12.354 15.902 11.841 14.976 11.417C14.413 11.142 14.064 10.958 14.064 10.679C14.064 10.432 14.363 10.168 14.988 10.168C15.404 10.1579 15.8174 10.236 16.201 10.397L16.351 10.464L16.578 9.177L16.539 9.186ZM20.691 9.043H19.441C19.052 9.043 18.759 9.15 18.589 9.536L16.185 14.982H17.886L18.226 14.089L20.302 14.091C20.351 14.3 20.501 14.982 20.501 14.982H22.001L20.691 9.043ZM10.049 8.993H11.67L10.656 14.935H9.03705L10.049 8.991V8.993ZM5.93405 12.268L6.10205 13.093L7.68605 9.043H9.40305L6.85205 14.974H5.13905L3.73905 9.952C3.71637 9.86919 3.66312 9.79808 3.59005 9.753C3.08545 9.49234 2.55079 9.29453 1.99805 9.164L2.02005 9.039H4.62905C4.98305 9.053 5.26805 9.164 5.36305 9.542L5.93305 12.271V12.268H5.93405ZM18.691 12.874L19.337 11.212C19.329 11.23 19.47 10.869 19.552 10.646L19.663 11.159L20.038 12.873H18.69V12.874H18.691Z" fill="#4B5563"/>
</svg>
